<?xml version="1.0" encoding="utf-8"?>
<svg width="512px" height="513px" viewbox="0 0 512 513" version="1.1" xmlns:xlink="http://www.w3.org/1999/xlink" xmlns="http://www.w3.org/2000/svg">
  <defs>
    <path d="M0 0L512 0L512 512L0 512L0 0Z" id="path_1" />
    <clipPath id="mask_1">
      <use xlink:href="#path_1" />
    </clipPath>
  </defs>
  <g id="Instagram">
    <path d="M0 0L512 0L512 512L0 512L0 0Z" id="Background" fill="none" fill-rule="evenodd" stroke="none" />
    <g clip-path="url(#mask_1)">
      <g id="Group" transform="translate(0 0.0014343262)">
        <path d="M261.039 511.999C259.344 511.999 257.648 511.999 255.941 511.991C215.809 512.088 178.727 511.069 142.664 508.874C109.602 506.862 79.4219 495.436 55.3828 475.835C32.1875 456.92 16.3477 431.346 8.30469 399.831C1.30469 372.393 0.933594 345.46 0.578125 319.409C0.320312 300.717 0.0546875 278.569 0 256.045C0.0546875 233.428 0.320312 211.28 0.578125 192.588C0.933594 166.542 1.30469 139.608 8.30469 112.167C16.3477 80.6509 32.1875 55.0767 55.3828 36.1626C79.4219 16.5611 109.602 5.13528 142.668 3.12356C178.73 0.932158 215.82 -0.0912802 256.039 0.00637603C296.184 -0.0795615 333.254 0.932158 369.316 3.12356C402.379 5.13528 432.559 16.5611 456.598 36.1626C479.797 55.0767 495.633 80.6509 503.676 112.167C510.676 139.604 511.047 166.542 511.402 192.588C511.66 211.28 511.93 233.428 511.98 255.952L511.98 256.045C511.93 278.569 511.66 300.717 511.402 319.409C511.047 345.456 510.68 372.389 503.676 399.831C495.633 431.346 479.797 456.92 456.598 475.835C432.559 495.436 402.379 506.862 369.316 508.874C334.781 510.975 299.305 511.999 261.039 511.999L261.039 511.999ZM255.941 471.991C295.422 472.085 331.672 471.088 366.887 468.948C391.887 467.428 413.563 459.315 431.32 444.835C447.734 431.448 459.039 412.979 464.918 389.94C470.746 367.1 471.082 342.577 471.406 318.862C471.66 300.295 471.926 278.303 471.98 255.999C471.926 233.69 471.66 211.702 471.406 193.135C471.082 169.42 470.746 144.897 464.918 122.053C459.039 99.0142 447.734 80.5454 431.32 67.1587C413.563 52.6822 391.887 44.5689 366.887 43.0493C331.672 40.9048 295.422 39.9165 256.035 40.0025C216.562 39.9087 180.309 40.9048 145.094 43.0493C120.094 44.5689 98.418 52.6822 80.6602 67.1587C64.2461 80.5454 52.9414 99.0142 47.0625 122.053C41.2344 144.897 40.8984 169.417 40.5742 193.135C40.3203 211.717 40.0547 233.721 40 256.045C40.0547 278.272 40.3203 300.28 40.5742 318.862C40.8984 342.577 41.2344 367.1 47.0625 389.94C52.9414 412.979 64.2461 431.448 80.6602 444.835C98.418 459.311 120.094 467.424 145.094 468.944C180.309 471.088 216.57 472.088 255.941 471.991L255.941 471.991ZM254.988 380.999C186.066 380.999 129.988 324.924 129.988 255.999C129.988 187.073 186.066 130.999 254.988 130.999C323.914 130.999 379.988 187.073 379.988 255.999C379.988 324.924 323.914 380.999 254.988 380.999L254.988 380.999ZM254.988 170.999C208.121 170.999 169.988 209.131 169.988 255.999C169.988 302.866 208.121 340.999 254.988 340.999C301.859 340.999 339.988 302.866 339.988 255.999C339.988 209.131 301.859 170.999 254.988 170.999L254.988 170.999ZM393.988 90.9986C377.422 90.9986 363.988 104.428 363.988 120.999C363.988 137.569 377.422 150.999 393.988 150.999C410.559 150.999 423.988 137.569 423.988 120.999C423.988 104.428 410.559 90.9986 393.988 90.9986L393.988 90.9986Z" id="Shape" fill="#F2A70C" fill-rule="evenodd" stroke="none" />
      </g>
    </g>
  </g>
</svg>